HIERARCHY
ROOT hip
{
  OFFSET -9.34631 82.693 -19.9933
  CHANNELS 6 Xposition Yposition Zposition Zrotation Xrotation Yrotation
  JOINT abdomen
  {
    OFFSET 0 20.6881 -0.73152
    CHANNELS 3 Zrotation Xrotation Yrotation
    JOINT chest
    {
      OFFSET 0 11.7043 -0.48768
      CHANNELS 3 Zrotation Xrotation Yrotation
      JOINT neck
      {
        OFFSET 0 22.1894 -2.19456
        CHANNELS 3 Zrotation Xrotation Yrotation
        JOINT head
        {
          OFFSET -0.24384 7.07133 1.2192
          CHANNELS 3 Zrotation Xrotation Yrotation
          JOINT leftEye
          {
            OFFSET 4.14528 8.04674 8.04672
            CHANNELS 3 Zrotation Xrotation Yrotation
            End Site
            {
              OFFSET 1 0 0
            }
          }
          JOINT rightEye
          {
            OFFSET -3.6576 8.04674 8.04672
            CHANNELS 3 Zrotation Xrotation Yrotation
            End Site
            {
              OFFSET 1 0 0
            }
          }
        }
      }
      JOINT rCollar
      {
        OFFSET -2.68224 19.2634 -4.8768
        CHANNELS 3 Zrotation Xrotation Yrotation
        JOINT rShldr
        {
          OFFSET -8.77824 -1.95073 1.46304
          CHANNELS 3 Zrotation Xrotation Yrotation
          JOINT rForeArm
          {
            OFFSET -28.1742 -1.7115 0.48768
            CHANNELS 3 Zrotation Xrotation Yrotation
            JOINT rHand
            {
              OFFSET -22.5879 0.773209 7.07136
              CHANNELS 3 Zrotation Xrotation Yrotation
              JOINT rThumb1
              {
                OFFSET -1.2192 -0.487915 3.41376
                CHANNELS 3 Zrotation Xrotation Yrotation
                JOINT rThumb2
                {
                  OFFSET -3.37035 -0.52449 3.41376
                  CHANNELS 3 Zrotation Xrotation Yrotation
                  End Site
                  {
                    OFFSET -1.78271 -1.18214 1.43049
                  }
                }
              }
              JOINT rIndex1
              {
                OFFSET -7.75947 0.938293 5.60832
                CHANNELS 3 Zrotation Xrotation Yrotation
                JOINT rIndex2
                {
                  OFFSET -2.54057 -0.884171 1.56538
                  CHANNELS 3 Zrotation Xrotation Yrotation
                  End Site
                  {
                    OFFSET -1.62519 -0.234802 1.16502
                  }
                }
              }
              JOINT rMid1
              {
                OFFSET -8.24714 1.18213 3.41376
                CHANNELS 3 Zrotation Xrotation Yrotation
                JOINT rMid2
                {
                  OFFSET -3.10165 -0.590103 1.0647
                  CHANNELS 3 Zrotation Xrotation Yrotation
                  End Site
                  {
                    OFFSET -2.48547 -0.328903 0.83742
                  }
                }
              }
              JOINT rRing1
              {
                OFFSET -8.82822 0.546677 1.51678
                CHANNELS 3 Zrotation Xrotation Yrotation
                JOINT rRing2
                {
                  OFFSET -2.60934 -0.819778 -0.0198488
                  CHANNELS 3 Zrotation Xrotation Yrotation
                  End Site
                  {
                    OFFSET -2.33842 -0.294052 0.168128
                  }
                }
              }
              JOINT rPinky1
              {
                OFFSET -8.27202 -0.0477905 -0.4584
                CHANNELS 3 Zrotation Xrotation Yrotation
                JOINT rPinky2
                {
                  OFFSET -1.82734 -0.647385 -0.700984
                  CHANNELS 3 Zrotation Xrotation Yrotation
                  End Site
                  {
                    OFFSET -1.69225 -0.51767 -0.607171
                  }
                }
              }
            }
          }
        }
      }
      JOINT lCollar
      {
        OFFSET 2.68224 19.2634 -4.8768
        CHANNELS 3 Zrotation Xrotation Yrotation
        JOINT lShldr
        {
          OFFSET 8.77824 -1.95073 1.46304
          CHANNELS 3 Zrotation Xrotation Yrotation
          JOINT lForeArm
          {
            OFFSET 28.1742 -1.7115 0.48768
            CHANNELS 3 Zrotation Xrotation Yrotation
            JOINT lHand
            {
              OFFSET 22.5879 0.773209 7.07136
              CHANNELS 3 Zrotation Xrotation Yrotation
              JOINT lThumb1
              {
                OFFSET 1.2192 -0.487915 3.41376
                CHANNELS 3 Zrotation Xrotation Yrotation
                JOINT lThumb2
                {
                  OFFSET 3.37035 -0.52449 3.41376
                  CHANNELS 3 Zrotation Xrotation Yrotation
                  End Site
                  {
                    OFFSET 1.78271 -1.18214 1.43049
                  }
                }
              }
              JOINT lIndex1
              {
                OFFSET 7.75947 0.938293 5.60832
                CHANNELS 3 Zrotation Xrotation Yrotation
                JOINT lIndex2
                {
                  OFFSET 2.54057 -0.884171 1.56538
                  CHANNELS 3 Zrotation Xrotation Yrotation
                  End Site
                  {
                    OFFSET 1.62519 -0.234802 1.16502
                  }
                }
              }
              JOINT lMid1
              {
                OFFSET 8.24714 1.18213 3.41376
                CHANNELS 3 Zrotation Xrotation Yrotation
                JOINT lMid2
                {
                  OFFSET 3.10165 -0.590103 1.0647
                  CHANNELS 3 Zrotation Xrotation Yrotation
                  End Site
                  {
                    OFFSET 2.48547 -0.328903 0.83742
                  }
                }
              }
              JOINT lRing1
              {
                OFFSET 8.82822 0.546677 1.51678
                CHANNELS 3 Zrotation Xrotation Yrotation
                JOINT lRing2
                {
                  OFFSET 2.60934 -0.819778 -0.0198488
                  CHANNELS 3 Zrotation Xrotation Yrotation
                  End Site
                  {
                    OFFSET 2.33842 -0.294052 0.168128
                  }
                }
              }
              JOINT lPinky1
              {
                OFFSET 8.27202 -0.0477905 -0.4584
                CHANNELS 3 Zrotation Xrotation Yrotation
                JOINT lPinky2
                {
                  OFFSET 1.82734 -0.647385 -0.700984
                  CHANNELS 3 Zrotation Xrotation Yrotation
                  End Site
                  {
                    OFFSET 1.69225 -0.51767 -0.607171
                  }
                }
              }
            }
          }
        }
      }
    }
  }
  JOINT rButtock
  {
    OFFSET -8.77824 4.35084 1.2192
    CHANNELS 3 Zrotation Xrotation Yrotation
    JOINT rThigh
    {
      OFFSET 0 -1.70687 -2.19456
      CHANNELS 3 Zrotation Xrotation Yrotation
      JOINT rShin
      {
        OFFSET 0 -36.8199 0.73152
        CHANNELS 3 Zrotation Xrotation Yrotation
        JOINT rFoot
        {
          OFFSET 0.73152 -45.1104 -5.12064
          CHANNELS 3 Zrotation Xrotation Yrotation
          End Site
          {
            OFFSET -1.1221 -3.69964 12.103
          }
        }
      }
    }
  }
  JOINT lButtock
  {
    OFFSET 8.77824 4.35084 1.2192
    CHANNELS 3 Zrotation Xrotation Yrotation
    JOINT lThigh
    {
      OFFSET 0 -1.70687 -2.19456
      CHANNELS 3 Zrotation Xrotation Yrotation
      JOINT lShin
      {
        OFFSET 0 -36.8199 0.73152
        CHANNELS 3 Zrotation Xrotation Yrotation
        JOINT lFoot
        {
          OFFSET -0.73152 -45.1104 -5.12064
          CHANNELS 3 Zrotation Xrotation Yrotation
          End Site
          {
            OFFSET 1.1221 -3.69964 12.103
          }
        }
      }
    }
  }
}
MOTION
Frames:	4
Frame Time:	0.00833333
-6.09465 85.1919 -1.09072 -0.432445 -0.00109267 0.00738272 0.569005 -0.00295246 0.0162651 0.157039 -0.00456253 0.0272094 1.32392e-014 1.59028e-015 -2.48481e-017 3.96731e-014 9.54166e-015 -6.05672e-017 -0 0 0 -0 0 0 6.75754e-015 -5.43552e-018 1.49089e-016 1.39555e-013 2.36057e-016 1.19271e-015 2.38388e-012 -7.15028e-013 -2.54444e-014 2.72914e-011 7.03424e-013 -9.54166e-015 6.43715e-011 -2.95499e-014 -4.45278e-014 1.11152e-010 -5.40694e-014 -1.00187e-013 6.43768e-011 -3.10104e-014 -5.725e-014 7.73091 5.47488 0.417314 6.43718e-011 -2.97183e-014 -5.40694e-014 2.90554 0.965183 0.102902 6.43748e-011 -2.98177e-014 -5.48646e-014 10.2786 0.731801 0.0259123 6.43623e-011 -2.46493e-014 -5.40694e-014 2.22167 -0.733487 -0.20892 6.46207e-015 -5.82377e-018 -1.49089e-016 1.36435e-013 -1.86361e-017 -3.97569e-016 2.38074e-012 7.10059e-013 -1.27222e-014 2.72821e-011 -7.30385e-013 -9.54166e-015 6.43519e-011 -4.55813e-014 -6.04305e-014 1.11148e-010 -7.63333e-014 -1.00187e-013 6.43466e-011 -4.77083e-014 -5.40694e-014 -7.73091 5.47488 -0.417314 6.43524e-011 -4.57205e-014 -5.40694e-014 -2.90554 0.965183 -0.102902 6.43453e-011 -4.59193e-014 -5.48646e-014 -10.2786 0.731801 -0.0259123 6.43593e-011 -4.13472e-014 -5.725e-014 -2.22167 -0.733487 0.20892 -2.03217e-016 0 -3.88251e-019 0.928626 -4.52916 -0.0776734 -0.00199968 2.65214 -0.0087409 -0.500877 1.87723 0.0953366 2.03217e-016 0 3.88251e-019 -0.0622966 -2.33915 0.0221476 0.00810008 -1.31474 0.069373 0.492977 3.65401 -0.130496 
-10.394 83.5745 -6.53772 -3.84875 6.89985 -22.2353 2.85053 2.98794 1.35768 -0.707713 -0.873311 0.439073 -0.32605 5.21544 -1.0388 0.398738 -5.83057 -2.08655 -0 0 0 -0 0 0 1.65523e-014 8.71169e-014 2.80535e-014 18.2966 10.2363 2.66508 -15.0865 -12.3232 14.5606 0.0471727 4.84312 0.672032 -3.34554e-010 2.58304e-010 -6.72941e-011 -5.7933e-010 4.49256e-010 -1.11524e-010 -3.34548e-010 2.58301e-010 -6.73079e-011 7.73091 5.47488 0.417314 -3.34553e-010 2.58304e-010 -6.73038e-011 2.90554 0.965183 0.102902 -3.34548e-010 2.58302e-010 -6.73031e-011 10.2786 0.731801 0.0259123 -3.3456e-010 2.58307e-010 -6.73012e-011 2.22167 -0.733487 -0.20892 1.63484e-014 8.71204e-014 2.77642e-014 -11.9435 -5.59623 7.26442 -5.18804 12.5309 45.8427 0.000290239 -0.401435 0.0564489 -4.63314e-010 -2.21653e-010 8.74385e-011 -8.02471e-010 -3.83494e-010 1.4935e-010 -4.6332e-010 -2.21655e-010 8.74466e-011 -7.73091 5.47488 -0.417314 -4.63313e-010 -2.21654e-010 8.74439e-011 -2.90554 0.965183 -0.102902 -4.6332e-010 -2.21654e-010 8.7443e-011 -10.2786 0.731801 -0.0259123 -4.63307e-010 -2.21649e-010 8.74407e-011 -2.22167 -0.733487 0.20892 -2.03217e-016 0 -3.88251e-019 1.83713 -9.14558 -1.59253 0.00959165 10.9787 0.129037 -0.659422 -2.66374 -1.17604 2.03217e-016 0 3.88251e-019 -0.494469 -8.05857 -2.33906 0.0127939 9.20569 -0.0637552 0.136079 -0.322337 -3.09898 
-10.018 83.354 -6.4399 -2.11339 10.5029 -46.3765 5.07065 6.05674 2.77243 -1.59783 -1.77864 0.868632 -0.462543 10.7234 -2.16636 0.355343 -11.9284 -4.36629 -0 0 0 -0 0 0 2.82159e-014 1.90859e-013 6.18469e-014 36.5731 21.0074 5.72362 -24.0722 -22.6399 31.9673 -0.0288041 10.0145 1.40623 -8.31236e-010 5.80668e-010 -1.32926e-010 -1.43881e-009 1.00973e-009 -2.19052e-010 -8.3123e-010 5.80665e-010 -1.32941e-010 7.73091 5.47488 0.417314 -8.31235e-010 5.80668e-010 -1.32936e-010 2.90554 0.965183 0.102902 -8.31227e-010 5.80665e-010 -1.32933e-010 10.2786 0.731801 0.0259123 -8.31239e-010 5.8067e-010 -1.3293e-010 2.22167 -0.733487 -0.20892 2.81103e-014 1.90867e-013 6.15642e-014 -23.0608 -11.1537 15.1564 -21.1511 -0.85337 91.1574 0.0018449 -0.762203 0.107217 -1.10571e-009 -4.87593e-010 2.10649e-010 -1.91485e-009 -8.4353e-010 3.60052e-010 -1.10571e-009 -4.87595e-010 2.10659e-010 -7.73091 5.47488 -0.417314 -1.1057e-009 -4.87595e-010 2.10653e-010 -2.90554 0.965183 -0.102902 -1.10571e-009 -4.87594e-010 2.10652e-010 -10.2786 0.731801 -0.0259123 -1.1057e-009 -4.87589e-010 2.1065e-010 -2.22167 -0.733487 0.20892 -2.03217e-016 0 -3.88251e-019 2.50677 -13.9237 -3.28701 -0.0235569 19.6351 0.284737 -1.05001 -7.45684 -2.55451 2.03217e-016 0 3.88251e-019 -1.48908 -14.0057 -4.97417 0.0731385 20.2184 -0.214585 -0.694004 -4.52296 -6.27237 
-9.60024 83.0798 -6.32535 1.49783 8.82159 -67.8195 6.98941 8.94981 4.0848 -2.39972 -2.61025 1.26396 -0.392586 15.6254 -3.22273 -0.126812 -17.3967 -6.52703 -0 0 0 -0 0 0 3.61417e-014 2.61362e-013 8.38623e-014 51.6572 30.4211 9.13401 -26.7491 -27.0251 49.5191 -0.208811 14.5212 2.07522 -1.1324e-009 7.7497e-010 -2.01793e-010 -1.96029e-009 1.34788e-009 -3.34371e-010 -1.1324e-009 7.74966e-010 -2.01809e-010 7.73091 5.47488 0.417314 -1.1324e-009 7.7497e-010 -2.01803e-010 2.90554 0.965183 0.102902 -1.13239e-009 7.74967e-010 -2.01799e-010 10.2786 0.731801 0.0259123 -1.1324e-009 7.74971e-010 -2.01796e-010 2.22167 -0.733487 -0.20892 3.61212e-014 2.61373e-013 8.35909e-014 -31.5512 -15.6934 22.574 -21.8403 -33.2969 119.564 0.00324417 -1.2043 0.16938 -1.51865e-009 -6.64868e-010 2.62436e-010 -2.62971e-009 -1.15033e-009 4.48249e-010 -1.51865e-009 -6.6487e-010 2.62448e-010 -7.73091 5.47488 -0.417314 -1.51864e-009 -6.6487e-010 2.6244e-010 -2.90554 0.965183 -0.102902 -1.51865e-009 -6.64869e-010 2.62439e-010 -10.2786 0.731801 -0.0259123 -1.51864e-009 -6.64864e-010 2.62437e-010 -2.22167 -0.733487 0.20892 -2.03217e-016 0 -3.88251e-019 2.88681 -18.3285 -4.80635 -0.100776 27.6313 0.448658 -1.5907 -11.7223 -3.79414 2.03217e-016 0 3.88251e-019 -2.8435 -19.3663 -7.41377 0.185737 30.246 -0.379122 -1.81752 -8.17303 -9.12984 
